<svg width="45" height="150" viewBox="0 0 45 150" fill="none" xmlns="http://www.w3.org/2000/svg">
<path d="M0 20C0 8.9543 8.95431 0 20 0H45V150H20C8.9543 150 0 141.046 0 130V20Z" fill="#F5851F"/>
<path d="M23.8337 121.853C24.1127 121.053 24.5519 120.425 25.1513 119.971C25.7374 119.517 26.4504 119.29 27.2904 119.289C28.5171 119.287 29.4644 119.779 30.1323 120.765C30.8002 121.751 31.1354 123.177 31.1377 125.044L31.1473 132.604L17.1473 132.621L17.1382 125.461C17.136 123.675 17.4676 122.314 18.1331 121.38C18.7852 120.446 19.6713 119.978 20.7913 119.977C21.458 119.976 22.0582 120.142 22.5919 120.475C23.1123 120.794 23.5263 121.253 23.8337 121.853ZM20.0023 128.698L22.7023 128.694L22.6989 125.974C22.6972 124.641 22.243 123.975 21.3364 123.976C20.443 123.977 19.9972 124.644 19.9989 125.978L20.0023 128.698ZM28.2781 125.367C28.2764 123.981 27.8022 123.288 26.8555 123.289C25.9088 123.29 25.4364 123.984 25.4381 125.371L25.4423 128.691L28.2823 128.687L28.2781 125.367ZM31.3012 111.972C31.3027 113.132 31.064 114.179 30.5852 115.113C30.1064 116.047 29.4406 116.781 28.588 117.316C27.7353 117.837 26.7689 118.098 25.6889 118.1C24.6223 118.101 23.6619 117.842 22.808 117.323C21.954 116.791 21.293 116.065 20.8252 115.146C20.344 114.213 20.1027 113.16 20.1012 111.987C20.0997 110.813 20.3384 109.76 20.8172 108.826C21.2827 107.892 21.9418 107.164 22.7945 106.643C23.6338 106.122 24.5935 105.861 25.6735 105.86C26.7535 105.858 27.7205 106.117 28.5745 106.636C29.4285 107.155 30.096 107.881 30.5772 108.813C31.0584 109.746 31.2997 110.799 31.3012 111.972ZM28.2812 111.976C28.2804 111.31 28.053 110.763 27.5991 110.337C27.1319 109.911 26.4917 109.698 25.6783 109.7C24.8783 109.701 24.2519 109.915 23.7991 110.342C23.3463 110.769 23.1204 111.316 23.1212 111.983C23.1221 112.649 23.3494 113.196 23.8033 113.622C24.2572 114.048 24.8841 114.261 25.6841 114.26C26.4974 114.258 27.1372 114.044 27.6033 113.617C28.0561 113.19 28.2821 112.643 28.2812 111.976ZM31.2844 98.6521C31.2859 99.8121 31.0472 100.859 30.5684 101.793C30.0895 102.727 29.4238 103.461 28.5711 103.996C27.7185 104.517 26.7521 104.778 25.6721 104.779C24.6055 104.781 23.6451 104.522 22.7911 104.003C21.9371 103.471 21.2762 102.745 20.8084 101.825C20.3272 100.893 20.0859 99.8396 20.0844 98.6663C20.0829 97.4929 20.3216 96.4393 20.8004 95.5053C21.2659 94.5714 21.925 93.8439 22.7776 93.3228C23.617 92.8018 24.5767 92.5406 25.6567 92.5392C26.7367 92.5378 27.7037 92.7966 28.5576 93.3155C29.4116 93.8345 30.0792 94.5603 30.5604 95.493C31.0416 96.4257 31.2829 97.4788 31.2844 98.6521ZM28.2644 98.6559C28.2635 97.9893 28.0362 97.4429 27.5823 97.0168C27.1151 96.5907 26.4748 96.3782 25.6615 96.3792C24.8615 96.3802 24.2351 96.5943 23.7823 97.0216C23.3295 97.4488 23.1036 97.9958 23.1044 98.6624C23.1052 99.3291 23.3326 99.8755 23.7865 100.302C24.2403 100.728 24.8673 100.94 25.6673 100.939C26.4806 100.938 27.1203 100.724 27.5865 100.297C28.0393 99.8695 28.2652 99.3226 28.2644 98.6559ZM27.2882 85.8568L28.4296 86.9754L31.0896 86.972L31.0944 90.772L16.2544 90.7908L16.2496 86.9908L24.0296 86.9809L20.2447 83.1057L20.2391 78.6057L24.8847 83.0999L31.0786 78.212L31.0844 82.812L27.2882 85.8568ZM17.0527 57.7585L31.0527 57.7408L31.0568 61.0008L23.6046 67.1902L31.0646 67.1808L31.0695 71.0608L17.0695 71.0785L17.0654 67.8185L24.5176 61.6291L17.0576 61.6385L17.0527 57.7585ZM31.2225 49.6873C31.224 50.8473 30.9853 51.8943 30.5065 52.8282C30.0277 53.7621 29.362 54.4963 28.5093 55.0307C27.6566 55.5518 26.6903 55.813 25.6103 55.8144C24.5436 55.8157 23.5833 55.557 22.7293 55.038C21.8753 54.5058 21.2144 53.7799 20.7465 52.8605C20.2654 51.9278 20.024 50.8748 20.0226 49.7014C20.0211 48.5281 20.2597 47.4745 20.7386 46.5405C21.2041 45.6066 21.8631 44.8791 22.7158 44.358C23.5552 43.837 24.5148 43.5758 25.5948 43.5744C26.6748 43.573 27.6418 43.8318 28.4958 44.3507C29.3498 44.8697 30.0174 45.5955 30.4986 46.5282C30.9797 47.4609 31.2211 48.514 31.2225 49.6873ZM28.2025 49.6911C28.2017 49.0244 27.9744 48.4781 27.5205 48.052C27.0533 47.6259 26.413 47.4134 25.5997 47.4144C24.7997 47.4154 24.1733 47.6295 23.7205 48.0568C23.2677 48.484 23.0417 49.031 23.0426 49.6976C23.0434 50.3643 23.2708 50.9107 23.7246 51.3368C24.1785 51.7629 24.8054 51.9754 25.6054 51.9744C26.4188 51.9734 27.0585 51.7592 27.5246 51.332C27.9774 50.9047 28.2034 50.3578 28.2025 49.6911ZM20.1703 24.1539L31.0152 28.0002L31.0198 31.6802L25.1224 33.7276L31.0251 35.8402L31.0297 39.5202L20.1946 43.3939L20.19 39.7939L26.7472 37.5656L20.1843 35.2739L20.1802 32.0339L26.7974 29.7855L20.1745 27.4939L20.1703 24.1539Z" fill="white"/>
</svg>
