<svg width="591" height="82" viewBox="0 0 591 82" fill="none" xmlns="http://www.w3.org/2000/svg">
<path d="M30.08 51.12H21.44V66H5.6V10H31.2C36.2667 10 40.6667 10.8533 44.4 12.56C48.1333 14.2133 51.0133 16.6133 53.04 19.76C55.0667 22.8533 56.08 26.5067 56.08 30.72C56.08 34.7733 55.12 38.32 53.2 41.36C51.3333 44.3467 48.64 46.6933 45.12 48.4L57.2 66H40.24L30.08 51.12ZM40.08 30.72C40.08 28.1067 39.2533 26.08 37.6 24.64C35.9467 23.2 33.4933 22.48 30.24 22.48H21.44V38.88H30.24C33.4933 38.88 35.9467 38.1867 37.6 36.8C39.2533 35.36 40.08 33.3333 40.08 30.72ZM82.1881 21.92C89.3881 21.92 94.8815 23.5733 98.6681 26.88C102.455 30.1333 104.348 35.1467 104.348 41.92V66H90.1881V60.4C88.0015 64.6133 83.7348 66.72 77.3881 66.72C74.0281 66.72 71.1215 66.1333 68.6681 64.96C66.2148 63.7867 64.3481 62.2133 63.0681 60.24C61.8415 58.2133 61.2281 55.92 61.2281 53.36C61.2281 49.2533 62.8015 46.08 65.9481 43.84C69.0948 41.5467 73.9481 40.4 80.5081 40.4H89.1481C88.8815 35.8133 85.8148 33.52 79.9481 33.52C77.8681 33.52 75.7615 33.8667 73.6281 34.56C71.4948 35.2 69.6815 36.1067 68.1881 37.28L63.0681 26.96C65.4681 25.36 68.3748 24.1333 71.7881 23.28C75.2548 22.3733 78.7215 21.92 82.1881 21.92ZM81.6281 57.12C83.3881 57.12 84.9348 56.6933 86.2681 55.84C87.6015 54.9867 88.5615 53.7333 89.1481 52.08V48.32H82.5881C78.1615 48.32 75.9481 49.7867 75.9481 52.72C75.9481 54.0533 76.4548 55.12 77.4681 55.92C78.4815 56.72 79.8681 57.12 81.6281 57.12ZM141.223 21.92C145.169 21.92 148.743 22.8533 151.943 24.72C155.196 26.5333 157.756 29.1467 159.623 32.56C161.543 35.92 162.503 39.84 162.503 44.32C162.503 48.8 161.543 52.7467 159.623 56.16C157.756 59.52 155.196 62.1333 151.943 64C148.743 65.8133 145.169 66.72 141.223 66.72C136.156 66.72 132.129 65.2 129.143 62.16V81.52H113.943V22.64H128.423V26.96C131.249 23.6 135.516 21.92 141.223 21.92ZM138.023 54.64C140.689 54.64 142.876 53.7333 144.583 51.92C146.289 50.0533 147.143 47.52 147.143 44.32C147.143 41.12 146.289 38.6133 144.583 36.8C142.876 34.9333 140.689 34 138.023 34C135.356 34 133.169 34.9333 131.463 36.8C129.756 38.6133 128.903 41.12 128.903 44.32C128.903 47.52 129.756 50.0533 131.463 51.92C133.169 53.7333 135.356 54.64 138.023 54.64ZM169.568 22.64H184.768V66H169.568V22.64ZM177.168 17.84C174.394 17.84 172.154 17.0667 170.448 15.52C168.741 13.9733 167.888 12.0533 167.888 9.76C167.888 7.46666 168.741 5.54666 170.448 4C172.154 2.45333 174.394 1.68 177.168 1.68C179.941 1.68 182.181 2.42666 183.888 3.92C185.594 5.36 186.448 7.22667 186.448 9.52C186.448 11.92 185.594 13.92 183.888 15.52C182.181 17.0667 179.941 17.84 177.168 17.84ZM240.726 6.64V66H226.246V61.68C223.419 65.04 219.179 66.72 213.526 66.72C209.579 66.72 205.979 65.8133 202.726 64C199.472 62.1333 196.886 59.4933 194.966 56.08C193.099 52.6667 192.166 48.72 192.166 44.24C192.166 39.76 193.099 35.84 194.966 32.48C196.886 29.0667 199.472 26.4533 202.726 24.64C205.979 22.8267 209.579 21.92 213.526 21.92C218.699 21.92 222.699 23.4133 225.526 26.4V6.64H240.726ZM216.726 54.64C219.339 54.64 221.499 53.7333 223.206 51.92C224.912 50.0533 225.766 47.4933 225.766 44.24C225.766 41.04 224.912 38.5333 223.206 36.72C221.552 34.9067 219.392 34 216.726 34C214.059 34 211.872 34.9067 210.166 36.72C208.459 38.5333 207.606 41.04 207.606 44.24C207.606 47.4933 208.459 50.0533 210.166 51.92C211.872 53.7333 214.059 54.64 216.726 54.64Z" fill="#FFFDD0"/>
<path d="M303.16 65L303 35.32L288.6 59.48H281.56L267.24 36.12V65H252.6V9H265.64L285.32 41.32L304.52 9H317.56L317.72 65H303.16ZM372.528 43.4C372.528 43.5067 372.448 44.76 372.288 47.16H340.768C341.408 49.4 342.635 51.1333 344.448 52.36C346.315 53.5333 348.635 54.12 351.408 54.12C353.488 54.12 355.275 53.8267 356.768 53.24C358.315 52.6533 359.861 51.6933 361.408 50.36L369.408 58.68C365.195 63.3733 359.035 65.72 350.928 65.72C345.861 65.72 341.408 64.76 337.568 62.84C333.728 60.92 330.741 58.2533 328.608 54.84C326.528 51.4267 325.488 47.56 325.488 43.24C325.488 38.9733 326.501 35.16 328.528 31.8C330.608 28.3867 333.461 25.72 337.088 23.8C340.715 21.88 344.795 20.92 349.328 20.92C353.648 20.92 357.568 21.8267 361.088 23.64C364.608 25.4 367.381 27.9867 369.408 31.4C371.488 34.76 372.528 38.76 372.528 43.4ZM349.408 31.72C347.061 31.72 345.088 32.3867 343.488 33.72C341.941 35.0533 340.955 36.8667 340.528 39.16H358.288C357.861 36.8667 356.848 35.0533 355.248 33.72C353.701 32.3867 351.755 31.72 349.408 31.72ZM425.616 5.64V65H411.136V60.68C408.31 64.04 404.07 65.72 398.416 65.72C394.47 65.72 390.87 64.8133 387.616 63C384.363 61.1333 381.776 58.4933 379.856 55.08C377.99 51.6667 377.056 47.72 377.056 43.24C377.056 38.76 377.99 34.84 379.856 31.48C381.776 28.0667 384.363 25.4533 387.616 23.64C390.87 21.8267 394.47 20.92 398.416 20.92C403.59 20.92 407.59 22.4133 410.416 25.4V5.64H425.616ZM401.616 53.64C404.23 53.64 406.39 52.7333 408.096 50.92C409.803 49.0533 410.656 46.4933 410.656 43.24C410.656 40.04 409.803 37.5333 408.096 35.72C406.443 33.9067 404.283 33 401.616 33C398.95 33 396.763 33.9067 395.056 35.72C393.35 37.5333 392.496 40.04 392.496 43.24C392.496 46.4933 393.35 49.0533 395.056 50.92C396.763 52.7333 398.95 53.64 401.616 53.64ZM435.396 21.64H450.596V65H435.396V21.64ZM442.996 16.84C440.222 16.84 437.982 16.0667 436.276 14.52C434.569 12.9733 433.716 11.0533 433.716 8.76C433.716 6.46666 434.569 4.54666 436.276 3C437.982 1.45333 440.222 0.679998 442.996 0.679998C445.769 0.679998 448.009 1.42666 449.716 2.92C451.422 4.36 452.276 6.22667 452.276 8.52C452.276 10.92 451.422 12.92 449.716 14.52C448.009 16.0667 445.769 16.84 442.996 16.84ZM482.634 65.72C477.834 65.72 473.54 64.76 469.754 62.84C465.967 60.92 463.007 58.2533 460.874 54.84C458.794 51.4267 457.754 47.56 457.754 43.24C457.754 38.92 458.794 35.08 460.874 31.72C463.007 28.3067 465.967 25.6667 469.754 23.8C473.54 21.88 477.834 20.92 482.634 20.92C487.54 20.92 491.78 21.9867 495.354 24.12C498.927 26.2 501.46 29.1067 502.954 32.84L491.194 38.84C489.22 34.9467 486.34 33 482.554 33C479.834 33 477.567 33.9067 475.754 35.72C473.994 37.5333 473.114 40.04 473.114 43.24C473.114 46.4933 473.994 49.0533 475.754 50.92C477.567 52.7333 479.834 53.64 482.554 53.64C486.34 53.64 489.22 51.6933 491.194 47.8L502.954 53.8C501.46 57.5333 498.927 60.4667 495.354 62.6C491.78 64.68 487.54 65.72 482.634 65.72ZM527.157 20.92C534.357 20.92 539.85 22.5733 543.637 25.88C547.424 29.1333 549.317 34.1467 549.317 40.92V65H535.157V59.4C532.97 63.6133 528.704 65.72 522.357 65.72C518.997 65.72 516.09 65.1333 513.637 63.96C511.184 62.7867 509.317 61.2133 508.037 59.24C506.81 57.2133 506.197 54.92 506.197 52.36C506.197 48.2533 507.77 45.08 510.917 42.84C514.064 40.5467 518.917 39.4 525.477 39.4H534.117C533.85 34.8133 530.784 32.52 524.917 32.52C522.837 32.52 520.73 32.8667 518.597 33.56C516.464 34.2 514.65 35.1067 513.157 36.28L508.037 25.96C510.437 24.36 513.344 23.1333 516.757 22.28C520.224 21.3733 523.69 20.92 527.157 20.92ZM526.597 56.12C528.357 56.12 529.904 55.6933 531.237 54.84C532.57 53.9867 533.53 52.7333 534.117 51.08V47.32H527.557C523.13 47.32 520.917 48.7867 520.917 51.72C520.917 53.0533 521.424 54.12 522.437 54.92C523.45 55.72 524.837 56.12 526.597 56.12ZM558.911 5.64H574.111V65H558.911V5.64Z" fill="#FBFBFB"/>
</svg>
