<svg width="293" height="47" viewBox="0 0 293 47" fill="none" xmlns="http://www.w3.org/2000/svg">
<path d="M15.04 31.56H10.72V39H2.8V11H15.6C18.1333 11 20.3333 11.4267 22.2 12.28C24.0667 13.1067 25.5067 14.3067 26.52 15.88C27.5333 17.4267 28.04 19.2533 28.04 21.36C28.04 23.3867 27.56 25.16 26.6 26.68C25.6667 28.1733 24.32 29.3467 22.56 30.2L28.6 39H20.12L15.04 31.56ZM20.04 21.36C20.04 20.0533 19.6267 19.04 18.8 18.32C17.9733 17.6 16.7467 17.24 15.12 17.24H10.72V25.44H15.12C16.7467 25.44 17.9733 25.0933 18.8 24.4C19.6267 23.68 20.04 22.6667 20.04 21.36ZM41.0941 16.96C44.6941 16.96 47.4407 17.7867 49.3341 19.44C51.2274 21.0667 52.1741 23.5733 52.1741 26.96V39H45.0941V36.2C44.0007 38.3067 41.8674 39.36 38.6941 39.36C37.0141 39.36 35.5607 39.0667 34.3341 38.48C33.1074 37.8933 32.1741 37.1067 31.5341 36.12C30.9207 35.1067 30.6141 33.96 30.6141 32.68C30.6141 30.6267 31.4007 29.04 32.9741 27.92C34.5474 26.7733 36.9741 26.2 40.2541 26.2H44.5741C44.4407 23.9067 42.9074 22.76 39.9741 22.76C38.9341 22.76 37.8807 22.9333 36.8141 23.28C35.7474 23.6 34.8407 24.0533 34.0941 24.64L31.5341 19.48C32.7341 18.68 34.1874 18.0667 35.8941 17.64C37.6274 17.1867 39.3607 16.96 41.0941 16.96ZM40.8141 34.56C41.6941 34.56 42.4674 34.3467 43.1341 33.92C43.8007 33.4933 44.2807 32.8667 44.5741 32.04V30.16H41.2941C39.0807 30.16 37.9741 30.8933 37.9741 32.36C37.9741 33.0267 38.2274 33.56 38.7341 33.96C39.2407 34.36 39.9341 34.56 40.8141 34.56ZM70.6113 16.96C72.5846 16.96 74.3713 17.4267 75.9713 18.36C77.5979 19.2667 78.8779 20.5733 79.8113 22.28C80.7713 23.96 81.2513 25.92 81.2513 28.16C81.2513 30.4 80.7713 32.3733 79.8113 34.08C78.8779 35.76 77.5979 37.0667 75.9713 38C74.3713 38.9067 72.5846 39.36 70.6113 39.36C68.0779 39.36 66.0646 38.6 64.5713 37.08V46.76H56.9713V17.32H64.2113V19.48C65.6246 17.8 67.7579 16.96 70.6113 16.96ZM69.0113 33.32C70.3446 33.32 71.4379 32.8667 72.2913 31.96C73.1446 31.0267 73.5713 29.76 73.5713 28.16C73.5713 26.56 73.1446 25.3067 72.2913 24.4C71.4379 23.4667 70.3446 23 69.0113 23C67.6779 23 66.5846 23.4667 65.7313 24.4C64.8779 25.3067 64.4513 26.56 64.4513 28.16C64.4513 29.76 64.8779 31.0267 65.7313 31.96C66.5846 32.8667 67.6779 33.32 69.0113 33.32ZM84.7838 17.32H92.3838V39H84.7838V17.32ZM88.5838 14.92C87.1971 14.92 86.0771 14.5333 85.2238 13.76C84.3704 12.9867 83.9438 12.0267 83.9438 10.88C83.9438 9.73333 84.3704 8.77333 85.2238 8C86.0771 7.22667 87.1971 6.84 88.5838 6.84C89.9704 6.84 91.0904 7.21333 91.9438 7.96C92.7971 8.68 93.2238 9.61333 93.2238 10.76C93.2238 11.96 92.7971 12.96 91.9438 13.76C91.0904 14.5333 89.9704 14.92 88.5838 14.92ZM120.363 9.32V39H113.123V36.84C111.709 38.52 109.589 39.36 106.763 39.36C104.789 39.36 102.989 38.9067 101.363 38C99.7361 37.0667 98.4428 35.7467 97.4828 34.04C96.5495 32.3333 96.0828 30.36 96.0828 28.12C96.0828 25.88 96.5495 23.92 97.4828 22.24C98.4428 20.5333 99.7361 19.2267 101.363 18.32C102.989 17.4133 104.789 16.96 106.763 16.96C109.349 16.96 111.349 17.7067 112.763 19.2V9.32H120.363ZM108.363 33.32C109.669 33.32 110.749 32.8667 111.603 31.96C112.456 31.0267 112.883 29.7467 112.883 28.12C112.883 26.52 112.456 25.2667 111.603 24.36C110.776 23.4533 109.696 23 108.363 23C107.029 23 105.936 23.4533 105.083 24.36C104.229 25.2667 103.803 26.52 103.803 28.12C103.803 29.7467 104.229 31.0267 105.083 31.96C105.936 32.8667 107.029 33.32 108.363 33.32Z" fill="#FFFDD0"/>
<path d="M151.08 39L151 24.16L143.8 36.24H140.28L133.12 24.56V39H125.8V11H132.32L142.16 27.16L151.76 11H158.28L158.36 39H151.08ZM185.764 28.2C185.764 28.2533 185.724 28.88 185.644 30.08H169.884C170.204 31.2 170.817 32.0667 171.724 32.68C172.657 33.2667 173.817 33.56 175.204 33.56C176.244 33.56 177.137 33.4133 177.884 33.12C178.657 32.8267 179.431 32.3467 180.204 31.68L184.204 35.84C182.097 38.1867 179.017 39.36 174.964 39.36C172.431 39.36 170.204 38.88 168.284 37.92C166.364 36.96 164.871 35.6267 163.804 33.92C162.764 32.2133 162.244 30.28 162.244 28.12C162.244 25.9867 162.751 24.08 163.764 22.4C164.804 20.6933 166.231 19.36 168.044 18.4C169.857 17.44 171.897 16.96 174.164 16.96C176.324 16.96 178.284 17.4133 180.044 18.32C181.804 19.2 183.191 20.4933 184.204 22.2C185.244 23.88 185.764 25.88 185.764 28.2ZM174.204 22.36C173.031 22.36 172.044 22.6933 171.244 23.36C170.471 24.0267 169.977 24.9333 169.764 26.08H178.644C178.431 24.9333 177.924 24.0267 177.124 23.36C176.351 22.6933 175.377 22.36 174.204 22.36ZM212.308 9.32V39H205.068V36.84C203.655 38.52 201.535 39.36 198.708 39.36C196.735 39.36 194.935 38.9067 193.308 38C191.681 37.0667 190.388 35.7467 189.428 34.04C188.495 32.3333 188.028 30.36 188.028 28.12C188.028 25.88 188.495 23.92 189.428 22.24C190.388 20.5333 191.681 19.2267 193.308 18.32C194.935 17.4133 196.735 16.96 198.708 16.96C201.295 16.96 203.295 17.7067 204.708 19.2V9.32H212.308ZM200.308 33.32C201.615 33.32 202.695 32.8667 203.548 31.96C204.401 31.0267 204.828 29.7467 204.828 28.12C204.828 26.52 204.401 25.2667 203.548 24.36C202.721 23.4533 201.641 23 200.308 23C198.975 23 197.881 23.4533 197.028 24.36C196.175 25.2667 195.748 26.52 195.748 28.12C195.748 29.7467 196.175 31.0267 197.028 31.96C197.881 32.8667 198.975 33.32 200.308 33.32ZM217.198 17.32H224.798V39H217.198V17.32ZM220.998 14.92C219.611 14.92 218.491 14.5333 217.638 13.76C216.784 12.9867 216.358 12.0267 216.358 10.88C216.358 9.73333 216.784 8.77333 217.638 8C218.491 7.22667 219.611 6.84 220.998 6.84C222.384 6.84 223.504 7.21333 224.358 7.96C225.211 8.68 225.638 9.61333 225.638 10.76C225.638 11.96 225.211 12.96 224.358 13.76C223.504 14.5333 222.384 14.92 220.998 14.92ZM240.817 39.36C238.417 39.36 236.27 38.88 234.377 37.92C232.484 36.96 231.004 35.6267 229.937 33.92C228.897 32.2133 228.377 30.28 228.377 28.12C228.377 25.96 228.897 24.04 229.937 22.36C231.004 20.6533 232.484 19.3333 234.377 18.4C236.27 17.44 238.417 16.96 240.817 16.96C243.27 16.96 245.39 17.4933 247.177 18.56C248.964 19.6 250.23 21.0533 250.977 22.92L245.097 25.92C244.11 23.9733 242.67 23 240.777 23C239.417 23 238.284 23.4533 237.377 24.36C236.497 25.2667 236.057 26.52 236.057 28.12C236.057 29.7467 236.497 31.0267 237.377 31.96C238.284 32.8667 239.417 33.32 240.777 33.32C242.67 33.32 244.11 32.3467 245.097 30.4L250.977 33.4C250.23 35.2667 248.964 36.7333 247.177 37.8C245.39 38.84 243.27 39.36 240.817 39.36ZM263.078 16.96C266.678 16.96 269.425 17.7867 271.318 19.44C273.212 21.0667 274.158 23.5733 274.158 26.96V39H267.078V36.2C265.985 38.3067 263.852 39.36 260.678 39.36C258.998 39.36 257.545 39.0667 256.318 38.48C255.092 37.8933 254.158 37.1067 253.518 36.12C252.905 35.1067 252.598 33.96 252.598 32.68C252.598 30.6267 253.385 29.04 254.958 27.92C256.532 26.7733 258.958 26.2 262.238 26.2H266.558C266.425 23.9067 264.892 22.76 261.958 22.76C260.918 22.76 259.865 22.9333 258.798 23.28C257.732 23.6 256.825 24.0533 256.078 24.64L253.518 19.48C254.718 18.68 256.172 18.0667 257.878 17.64C259.612 17.1867 261.345 16.96 263.078 16.96ZM262.798 34.56C263.678 34.56 264.452 34.3467 265.118 33.92C265.785 33.4933 266.265 32.8667 266.558 32.04V30.16H263.278C261.065 30.16 259.958 30.8933 259.958 32.36C259.958 33.0267 260.212 33.56 260.718 33.96C261.225 34.36 261.918 34.56 262.798 34.56ZM278.956 9.32H286.556V39H278.956V9.32Z" fill="#FBFBFB"/>
</svg>
